<?xml version="1.0" standalone="no"?>
<!DOCTYPE svg PUBLIC "-//W3C//DTD SVG 1.1//EN"
"http://www.w3.org/Graphics/SVG/1.1/DTD/svg11.dtd">
<svg width="27.4229mm" height="27.4372mm" viewBox="-113.782 141.535 27.4229 27.4372" xmlns="http://www.w3.org/2000/svg" version = "1.1">
<title>25mm.123dx</title>
<desc> made with 123D Design </desc>
<path d="M -107.564 156.043 L -107.582 155.862 L -108.954 155.862 L -109.19 155.862 L -109.169 156.05 L -109.034 157.032 L -108.994 157.223 L -108.73 158.159 L -108.67 158.352 L -108.661 158.375 L -108.633 158.448 L -108.253 159.311 L -108.153 159.524 L -108.016 159.755 L -107.544 160.517 L -107.376 160.744 L -106.824 161.408 L -106.625 161.629 L -106.016 162.182 L -105.821 162.357 L -105.775 162.398 L -105.759 162.414 L -105.266 162.756 L -104.694 163.146 L -104.047 163.467 L -103.53 163.723 L -103.511 163.667 L -103.356 163.208 L -103.015 162.201 L -103.144 162.143 L -103.554 161.93 L -104.014 161.684 L -104.604 161.252 L -105.008 160.954 L -105.361 160.597 L -105.87 160.072 L -106.164 159.664 L -106.576 159.061 L -106.803 158.613 L -107.108 157.948 L -107.263 157.471 L -107.451 156.764 L -107.53 156.268 z  M -89.4922 161.849 L -89.761 162.304 L -90.4654 163.199 L -90.7926 163.614 L -91.6098 164.406 L -91.9895 164.774 L -92.9049 165.45 L -93.3304 165.764 L -94.3276 166.312 L -94.7913 166.567 L -95.8525 166.977 L -96.3461 167.168 L -97.4525 167.433 L -97.9672 167.556 L -99.099 167.672 L -99.6256 167.725 L -100.763 167.688 L -101.292 167.671 L -102.414 167.483 L -102.936 167.396 L -104.023 167.06 L -104.528 166.904 L -105.561 166.426 L -106.041 166.204 L -107.001 165.593 L -107.447 165.309 L -108.317 164.575 L -108.721 164.234 L -109.486 163.391 L -109.841 162.999 L -110.486 162.062 L -110.786 161.626 L -111.3 160.611 L -111.54 160.139 L -111.914 159.064 L -112.088 158.565 L -112.316 157.45 L -112.422 156.932 L -112.499 155.796 L -112.535 155.269 L -112.461 154.133 L -112.426 153.605 L -112.2 152.489 L -112.096 151.971 L -111.723 150.895 L -111.551 150.396 L -111.038 149.379 L -110.801 148.907 L -110.157 147.968 L -109.859 147.532 L -109.096 146.686 L -108.742 146.294 L -107.873 145.558 L -107.47 145.217 L -106.511 144.603 L -106.066 144.318 L -105.033 143.837 L -104.555 143.615 L -103.467 143.276 L -102.964 143.119 L -101.84 142.928 L -101.32 142.84 L -100.181 142.8 L -99.6543 142.782 L -98.5203 142.895 L -97.9955 142.947 L -96.8867 143.21 L -96.3736 143.332 L -95.3096 143.74 L -94.8173 143.929 L -93.8173 144.476 L -93.3546 144.729 L -92.4364 145.403 L -92.0115 145.716 L -91.1915 146.507 L -90.8119 146.873 L -90.1047 147.767 L -89.7773 148.18 L -89.1956 149.16 L -88.9262 149.613 L -88.4802 150.662 L -88.2736 151.147 L -87.9714 152.246 L -87.8314 152.755 L -87.6783 153.883 L -87.6073 154.406 L -87.606 155.545 L -87.6054 156.073 L -87.7559 157.202 L -87.8257 157.726 L -88.1252 158.824 L -88.2642 159.334 L -88.7074 160.382 L -88.9132 160.869 z  M -90.4253 160.149 L -90.8992 160.842 L -91.0362 161.04 L -91.4922 161.587 L -91.7109 161.846 L -92.1273 162.249 L -92.4359 162.544 L -92.8044 162.834 L -93.218 163.154 L -93.5265 163.351 L -94.06 163.687 L -94.2937 163.808 L -94.9598 164.146 L -95.1042 164.205 L -95.9156 164.53 L -95.9564 164.543 L -96.9243 164.843 L -96.8616 165.044 L -96.6598 165.692 L -96.6557 165.705 L -96.6483 165.729 L -96.3765 165.629 L -95.7383 165.386 L -95.4535 165.256 L -94.8587 164.96 L -94.5664 164.799 L -94.0171 164.455 L -93.7229 164.26 L -93.2211 163.874 L -92.9284 163.644 L -92.6531 163.389 L -92.1939 162.958 L -91.9291 162.668 L -91.5237 162.205 L -91.2754 161.883 L -90.925 161.393 L -90.6984 161.04 L -90.4037 160.53 L -90.2031 160.15 L -89.9645 159.624 L -89.7938 159.22 L -89.6114 158.685 L -89.4742 158.264 L -89.3729 157.833 L -89.2443 157.285 L -89.1793 156.846 L -89.1062 156.3 L -89.0776 155.856 L -89.0583 155.316 L -89.0657 154.872 L -89.0985 154.343 L -89.1414 153.899 L -89.2238 153.387 L -89.3006 152.952 L -89.4073 152.536 L -89.5383 152.038 L -89.6764 151.629 L -89.8519 151.155 L -90.0286 150.738 L -90.2452 150.292 L -90.4601 149.879 L -90.7145 149.464 L -90.9727 149.05 L -91.2673 148.654 L -91.5594 148.268 L -91.8968 147.885 L -92.2196 147.535 L -92.5974 147.173 L -92.9467 146.861 L -93.3631 146.525 L -93.7348 146.254 L -94.1864 145.949 L -94.5766 145.719 L -95.0592 145.45 L -95.4637 145.263 L -95.9705 145.035 L -96.3843 144.891 L -96.9155 144.705 L -97.4542 144.567 L -97.8788 144.464 L -98.7504 144.341 L -99.18 144.28 L -99.6018 144.262 L -100.476 144.254 L -100.894 144.277 L -101.735 144.377 L -102.145 144.441 L -102.536 144.541 L -102.991 144.649 L -103.333 144.737 L -102.394 144.516 L -101.803 144.378 L -100.729 144.283 L -100.237 144.24 L -99.1607 144.299 L -98.6676 144.326 L -97.6107 144.538 L -97.1266 144.635 L -96.1106 144.996 L -95.6452 145.16 L -94.6908 145.662 L -94.2536 145.891 L -93.3803 146.523 L -92.9801 146.812 L -92.2057 147.562 L -91.8508 147.905 L -91.1909 148.757 L -90.8884 149.148 L -90.3566 150.085 L -90.1128 150.515 L -89.7197 151.518 L -89.5395 151.978 L -89.2933 153.027 L -89.1804 153.509 L -89.086 154.582 L -89.0426 155.074 L -89.1019 156.15 L -89.1291 156.644 L -89.3409 157.7 L -89.4381 158.185 L -89.7979 159.2 L -89.9632 159.666 L -90.4638 160.619 L -90.6938 161.058 L -91.3249 161.93 L -91.615 162.331 L -92.3637 163.105 L -92.7081 163.46 L -93.5592 164.119 L -93.9507 164.423 L -94.8869 164.954 L -95.3177 165.198 L -95.8848 165.421 L -96.7811 165.772 L -96.7541 165.763 L -96.7028 165.747 L -96.6758 165.738 L -96.6489 165.729 L -96.6615 165.689 L -96.6641 165.681 L -96.6663 165.673 L -96.8287 165.152 L -96.9242 164.845 L -96.9908 164.858 L -97.8464 164.993 L -97.961 165.01 L -98.1627 165.023 L -98.9609 165.079 L -99.5826 165.065 L -99.9256 165.055 L -100.347 165.001 L -100.849 164.94 L -101.372 164.819 L -101.739 164.737 L -102.36 164.525 L -102.6 164.445 L -103.329 164.112 L -103.45 164.058 L -104.265 163.591 L -104.267 163.59 L -104.282 163.579 L -104.872 163.17 L -105.157 162.952 L -105.36 162.78 L -105.711 162.464 L -105.808 162.392 L -106.282 161.98 L -106.464 161.804 L -106.882 161.375 L -107.162 161.038 L -107.489 160.615 L -107.733 160.267 L -107.907 159.97 L -108.245 159.376 L -108.391 159.072 L -108.661 158.389 L -108.779 158.082 L -108.857 157.818 L -109.048 157.016 L -109.103 156.753 L -109.132 156.524 L -109.199 155.951 L -109.207 155.768 L -109.224 155.128 L -109.22 154.998 L -109.174 154.291 L -109.166 154.221 L -109.044 153.445 L -109.042 153.437 L -109.017 153.337 L -108.926 152.694 L -108.8 152.153 L -108.74 151.908 L -108.637 151.601 L -108.472 151.101 L -108.45 151.038 L -108.139 150.326 L -108.068 150.167 L -107.746 149.583 L -107.61 149.343 L -107.296 148.888 L -107.084 148.587 L -106.777 148.232 L -106.459 147.873 L -106.18 147.609 L -105.741 147.202 L -105.513 147.023 L -104.95 146.59 L -104.791 146.487 L -104.109 146.056 L -104.03 146.014 L -103.28 145.636 L -103.244 145.618 L -103.239 145.615 L -103.233 145.613 L -102.319 145.27 L -102.174 145.234 L -101.33 145.012 L -101.036 144.967 L -100.297 144.846 L -99.8585 144.817 L -99.25 144.774 L -98.6809 144.791 L -98.2177 144.801 L -97.53 144.895 L -97.2083 144.936 L -96.3751 145.142 L -96.1787 145.189 L -95.2166 145.527 L -95.1499 145.549 L -94.6297 145.787 L -94.174 146.045 L -94.1045 146.093 L -93.2928 146.659 L -93.1012 146.825 L -92.5059 147.339 L -92.21 147.656 L -91.7808 148.116 L -91.4009 148.612 L -91.1173 148.982 L -90.6858 149.666 L -90.5318 149.91 L -90.0892 150.78 L -90.0407 150.875 L -89.8121 151.464 L -89.6605 151.854 L -89.6427 151.92 L -89.3891 152.867 L -89.349 153.113 L -89.2144 153.937 L -89.1844 154.367 L -89.1382 155.031 L -89.1515 155.639 L -89.1621 156.121 L -89.2526 156.882 L -89.2877 157.177 L -89.4937 158.073 L -89.5206 158.19 L -89.7666 158.909 L -89.8813 159.169 L -89.8936 159.197 L -90.3585 160.031 z  M -95.8192 149.013 L -95.4117 149.309 L -94.86 149.79 L -94.5032 150.144 L -94.4473 150.203 L -94.3259 150.339 L -93.2381 149.549 L -93.0247 149.394 L -91.9991 148.649 L -91.9121 148.585 L -92.0725 148.399 L -92.401 148.018 L -92.5086 147.91 L -92.9171 147.501 L -92.9659 147.459 L -93.3253 147.152 L -93.4764 147.045 L -93.4926 147.036 L -94.1109 146.665 L -94.3045 146.575 L -95.4695 146.027 L -95.9978 145.862 L -96.8808 145.582 L -97.2621 145.507 L -97.582 145.442 L -98.0309 145.39 L -98.2713 145.361 L -99.4907 145.356 L -99.6934 145.355 L -100.395 145.424 L -100.417 145.426 L -100.512 145.442 L -101.11 145.541 L -101.684 145.676 L -101.911 145.738 L -102.401 145.89 L -102.253 146.368 L -102.224 146.459 L -102.131 146.757 L -101.775 147.902 L -101.62 147.869 L -101.161 147.799 L -101.131 147.795 L -100.499 147.718 L -99.9959 147.72 L -99.2645 147.747 L -98.7677 147.828 L -98.0515 147.978 L -97.5731 148.134 L -96.8926 148.404 L -96.4443 148.633 z  M -89.676 157.036 L -89.7905 157.453 L -89.8011 157.491 L -90.0144 158.081 L -90.0489 158.174 L -90.5177 159.143 L -90.7025 159.515 L -91.165 160.218 L -91.5003 160.72 L -91.84 160.473 L -92.3105 160.131 L -92.6449 159.888 L -93.6114 159.186 L -93.5194 159.028 L -93.3102 158.615 L -93.1255 158.245 L -92.8851 157.554 L -92.7302 157.076 L -92.61 156.354 L -92.5311 155.858 L -92.53 155.355 L -92.5335 154.623 L -92.6103 154.126 L -92.7374 153.406 L -92.8903 152.927 L -93.1374 152.238 L -93.3625 151.789 L -93.5136 151.49 L -93.5899 151.358 L -92.5061 150.591 L -92.2778 150.429 L -91.3032 149.739 L -91.1606 149.638 L -90.5646 150.734 L -90.4395 150.964 L -90.1759 151.599 L -90.1581 151.642 L -90.1559 151.649 L -89.9351 152.324 L -89.8764 152.611 L -89.6367 153.779 L -89.5785 154.638 L -89.5341 155.295 L -89.6257 156.692 L -89.6321 156.788 z  M -97.0924 164.305 L -97.0929 164.304 L -97.2027 163.951 L -97.2027 163.951 L -97.2022 163.951 L -97.0925 164.303 L -97.0925 164.303 L -96.2663 164.042 L -95.765 163.874 L -95.4832 163.749 L -94.5024 163.29 L -93.9829 162.983 L -93.9136 162.942 L -93.8986 162.933 L -93.3523 162.557 L -92.9294 162.219 L -92.7119 162.03 L -92.3618 161.707 L -92.6616 161.484 L -93.0758 161.175 L -93.4181 160.92 L -94.3647 160.214 L -94.459 160.319 L -94.4884 160.35 L -94.8465 160.702 L -95.3932 161.188 L -95.8014 161.48 L -96.4223 161.866 L -96.8708 162.092 L -97.548 162.368 L -98.0261 162.521 L -98.7401 162.679 L -99.2362 162.757 L -99.9665 162.791 L -100.469 162.792 L -101.141 162.713 L -101.169 162.709 L -101.626 162.638 L -101.804 162.599 L -102.136 163.619 L -102.291 164.098 L -102.301 164.128 L -101.918 164.197 L -101.034 164.355 L -100.954 164.358 L -100.78 164.365 L -99.8503 164.492 L -99.7618 164.501 L -99.6526 164.504 L -98.6713 164.5 L -98.4595 164.492 L -98.1975 164.464 L -97.464 164.368 L -97.4559 164.367 z  M -102.96 148.285 L -103.128 148.358 L -103.539 148.569 L -103.565 148.583 L -104.032 148.835 L -104.438 149.131 L -105.025 149.569 L -105.38 149.925 L -105.884 150.455 L -106.181 150.861 L -106.587 151.47 L -106.817 151.917 L -107.115 152.585 L -107.273 153.062 L -107.454 153.771 L -107.536 154.267 L -107.563 154.454 L -107.579 154.605 L -108.933 154.588 L -109.186 154.585 L -109.164 154.414 L -109.049 153.544 L -109.044 153.52 L -109.041 153.505 L -109.032 153.462 L -108.814 152.607 L -108.759 152.417 L -108.437 151.582 L -108.363 151.411 L -108.022 150.748 L -107.954 150.63 L -107.536 149.978 L -107.484 149.909 L -106.991 149.279 L -106.465 148.724 L -106.4 148.64 L -106.382 148.621 L -105.774 147.985 L -105.26 147.537 L -104.972 147.307 L -104.487 146.952 L -104.097 146.72 L -103.573 146.401 L -103.457 146.756 L -103.435 146.824 L -103.336 147.129 z  " fill= "none" stroke="rgb(0,0,255)" stroke-width="0.05mm" />
</svg>
